<mxfile host="app.diagrams.net" agent="Mozilla/5.0 (Windows NT 10.0; Win64; x64) AppleWebKit/537.36 (KHTML, like Gecko) Chrome/130.0.0.0 YaBrowser/24.12.0.0 Safari/537.36" version="25.0.3" pages="2">
  <diagram id="BTmebPGwEzkFt1PDL1Y5" name="Диаграмма 1">
    <mxGraphModel dx="1050" dy="567" grid="1" gridSize="10" guides="1" tooltips="1" connect="1" arrows="1" fold="1" page="1" pageScale="1" pageWidth="827" pageHeight="1169" math="0" shadow="0">
      <root>
        <mxCell id="0" />
        <mxCell id="1" parent="0" />
        <mxCell id="Rbq2Ly_xB-UMOEI3UbAK-6" value="" style="swimlane;startSize=0;" parent="1" vertex="1">
          <mxGeometry x="210" y="190" width="810" height="470" as="geometry" />
        </mxCell>
        <mxCell id="Rbq2Ly_xB-UMOEI3UbAK-7" value="" style="swimlane;startSize=0;" parent="Rbq2Ly_xB-UMOEI3UbAK-6" vertex="1">
          <mxGeometry y="430" width="200" height="40" as="geometry" />
        </mxCell>
        <mxCell id="Rbq2Ly_xB-UMOEI3UbAK-13" value="&lt;b style=&quot;font-size: 18px;&quot;&gt;Node: A0&lt;/b&gt;" style="text;html=1;align=center;verticalAlign=middle;whiteSpace=wrap;rounded=0;" parent="Rbq2Ly_xB-UMOEI3UbAK-7" vertex="1">
          <mxGeometry x="45" y="5" width="90" height="30" as="geometry" />
        </mxCell>
        <mxCell id="Rbq2Ly_xB-UMOEI3UbAK-8" value="&lt;span style=&quot;font-size: 18px;&quot;&gt;Dispensing culinary products to the client&lt;/span&gt;" style="rounded=0;whiteSpace=wrap;html=1;" parent="Rbq2Ly_xB-UMOEI3UbAK-6" vertex="1">
          <mxGeometry x="204" y="430" width="480" height="40" as="geometry" />
        </mxCell>
        <mxCell id="Rbq2Ly_xB-UMOEI3UbAK-9" value="" style="rounded=0;whiteSpace=wrap;html=1;" parent="Rbq2Ly_xB-UMOEI3UbAK-6" vertex="1">
          <mxGeometry x="684" y="430" width="126" height="40" as="geometry" />
        </mxCell>
        <mxCell id="Rbq2Ly_xB-UMOEI3UbAK-10" value="&lt;span style=&quot;font-size: 18px;&quot;&gt;&lt;b&gt;Target:&lt;/b&gt;&lt;/span&gt;" style="text;html=1;align=center;verticalAlign=middle;whiteSpace=wrap;rounded=0;" parent="Rbq2Ly_xB-UMOEI3UbAK-6" vertex="1">
          <mxGeometry x="10" y="325" width="60" height="30" as="geometry" />
        </mxCell>
        <mxCell id="Rbq2Ly_xB-UMOEI3UbAK-12" value="&lt;span style=&quot;font-size: 18px;&quot;&gt;&lt;b&gt;Point of view:&lt;/b&gt;&lt;/span&gt;" style="text;html=1;align=center;verticalAlign=middle;whiteSpace=wrap;rounded=0;" parent="Rbq2Ly_xB-UMOEI3UbAK-6" vertex="1">
          <mxGeometry x="10" y="370" width="60" height="30" as="geometry" />
        </mxCell>
        <mxCell id="Rbq2Ly_xB-UMOEI3UbAK-16" value="&lt;font style=&quot;font-size: 18px;&quot;&gt;Dispensing culinary products to the client&lt;/font&gt;" style="rounded=0;whiteSpace=wrap;html=1;" parent="Rbq2Ly_xB-UMOEI3UbAK-6" vertex="1">
          <mxGeometry x="182" y="100" width="398" height="190" as="geometry" />
        </mxCell>
        <mxCell id="Rbq2Ly_xB-UMOEI3UbAK-20" value="Client" style="text;html=1;align=center;verticalAlign=middle;whiteSpace=wrap;rounded=0;" parent="Rbq2Ly_xB-UMOEI3UbAK-6" vertex="1">
          <mxGeometry x="45" y="160" width="110" height="30" as="geometry" />
        </mxCell>
        <mxCell id="Rbq2Ly_xB-UMOEI3UbAK-23" value="" style="edgeStyle=none;orthogonalLoop=1;jettySize=auto;html=1;rounded=0;" parent="Rbq2Ly_xB-UMOEI3UbAK-6" edge="1">
          <mxGeometry width="100" relative="1" as="geometry">
            <mxPoint x="310" y="360" as="sourcePoint" />
            <mxPoint x="310" y="290" as="targetPoint" />
            <Array as="points">
              <mxPoint x="310" y="320" />
            </Array>
          </mxGeometry>
        </mxCell>
        <mxCell id="Rbq2Ly_xB-UMOEI3UbAK-26" value="&lt;div&gt;Kitchen&lt;/div&gt;" style="text;html=1;align=center;verticalAlign=middle;whiteSpace=wrap;rounded=0;" parent="Rbq2Ly_xB-UMOEI3UbAK-6" vertex="1">
          <mxGeometry x="280" y="360" width="60" height="30" as="geometry" />
        </mxCell>
        <mxCell id="VmUSTQ06Wg-RTsGB7PUq-9" value="" style="endArrow=classic;html=1;rounded=0;" parent="Rbq2Ly_xB-UMOEI3UbAK-6" edge="1">
          <mxGeometry width="50" height="50" relative="1" as="geometry">
            <mxPoint x="580" y="190" as="sourcePoint" />
            <mxPoint x="770" y="190" as="targetPoint" />
          </mxGeometry>
        </mxCell>
        <mxCell id="VmUSTQ06Wg-RTsGB7PUq-12" value="" style="edgeStyle=none;orthogonalLoop=1;jettySize=auto;html=1;rounded=0;" parent="Rbq2Ly_xB-UMOEI3UbAK-6" edge="1">
          <mxGeometry width="100" relative="1" as="geometry">
            <mxPoint x="439.79999999999995" y="360" as="sourcePoint" />
            <mxPoint x="439.79999999999995" y="290" as="targetPoint" />
            <Array as="points">
              <mxPoint x="439.79999999999995" y="320" />
            </Array>
          </mxGeometry>
        </mxCell>
        <mxCell id="VmUSTQ06Wg-RTsGB7PUq-13" value="&lt;div&gt;Service staff (&lt;span style=&quot;background-color: initial;&quot;&gt;Waiters)&lt;/span&gt;&lt;/div&gt;" style="text;html=1;align=center;verticalAlign=middle;whiteSpace=wrap;rounded=0;" parent="Rbq2Ly_xB-UMOEI3UbAK-6" vertex="1">
          <mxGeometry x="420" y="370" width="60" height="30" as="geometry" />
        </mxCell>
        <mxCell id="VmUSTQ06Wg-RTsGB7PUq-16" value="&lt;div style=&quot;font-size: 15px;&quot;&gt;Realized client&lt;/div&gt;" style="text;html=1;align=center;verticalAlign=middle;whiteSpace=wrap;rounded=0;" parent="Rbq2Ly_xB-UMOEI3UbAK-6" vertex="1">
          <mxGeometry x="650" y="150" width="60" height="30" as="geometry" />
        </mxCell>
        <mxCell id="VmUSTQ06Wg-RTsGB7PUq-17" value="Serving an order to a restaurant customer" style="text;html=1;align=center;verticalAlign=middle;whiteSpace=wrap;rounded=0;" parent="Rbq2Ly_xB-UMOEI3UbAK-6" vertex="1">
          <mxGeometry x="70" y="330" width="120" height="30" as="geometry" />
        </mxCell>
        <mxCell id="VmUSTQ06Wg-RTsGB7PUq-18" value="&lt;div&gt;Customer service&lt;br&gt;&lt;/div&gt;" style="text;html=1;align=center;verticalAlign=middle;whiteSpace=wrap;rounded=0;" parent="Rbq2Ly_xB-UMOEI3UbAK-6" vertex="1">
          <mxGeometry x="95" y="380" width="60" height="30" as="geometry" />
        </mxCell>
        <mxCell id="sqJ4kKEXi5vs-Ru8mgJX-1" value="" style="endArrow=classic;html=1;rounded=0;" parent="Rbq2Ly_xB-UMOEI3UbAK-6" edge="1">
          <mxGeometry width="50" height="50" relative="1" as="geometry">
            <mxPoint x="40" y="200" as="sourcePoint" />
            <mxPoint x="182" y="200" as="targetPoint" />
          </mxGeometry>
        </mxCell>
        <mxCell id="fA45SD_D-PZWjbYuF41N-1" value="Order accounting" style="text;html=1;align=center;verticalAlign=middle;whiteSpace=wrap;rounded=0;" parent="Rbq2Ly_xB-UMOEI3UbAK-6" vertex="1">
          <mxGeometry x="351" y="20" width="60" height="30" as="geometry" />
        </mxCell>
        <mxCell id="fA45SD_D-PZWjbYuF41N-2" value="" style="edgeStyle=none;orthogonalLoop=1;jettySize=auto;html=1;rounded=0;exitX=0.5;exitY=1;exitDx=0;exitDy=0;" parent="Rbq2Ly_xB-UMOEI3UbAK-6" source="fA45SD_D-PZWjbYuF41N-1" edge="1">
          <mxGeometry width="100" relative="1" as="geometry">
            <mxPoint x="380.79" y="50" as="sourcePoint" />
            <mxPoint x="380.49999999999994" y="100" as="targetPoint" />
            <Array as="points">
              <mxPoint x="380.79" y="80" />
            </Array>
          </mxGeometry>
        </mxCell>
        <mxCell id="WkJREpXRsKlXx7rKNtdf-3" value="Technology of production of products" style="text;strokeColor=none;align=center;fillColor=none;html=1;verticalAlign=middle;whiteSpace=wrap;rounded=0;" parent="Rbq2Ly_xB-UMOEI3UbAK-6" vertex="1">
          <mxGeometry x="460" y="10" width="90" height="50" as="geometry" />
        </mxCell>
        <mxCell id="WkJREpXRsKlXx7rKNtdf-4" value="Regulations for the organization of services" style="text;strokeColor=none;align=center;fillColor=none;html=1;verticalAlign=middle;whiteSpace=wrap;rounded=0;" parent="Rbq2Ly_xB-UMOEI3UbAK-6" vertex="1">
          <mxGeometry x="220" y="20" width="60" height="30" as="geometry" />
        </mxCell>
        <mxCell id="WkJREpXRsKlXx7rKNtdf-6" value="" style="edgeStyle=none;orthogonalLoop=1;jettySize=auto;html=1;rounded=0;exitX=0.5;exitY=1;exitDx=0;exitDy=0;" parent="Rbq2Ly_xB-UMOEI3UbAK-6" source="WkJREpXRsKlXx7rKNtdf-3" edge="1">
          <mxGeometry width="100" relative="1" as="geometry">
            <mxPoint x="505" y="70" as="sourcePoint" />
            <mxPoint x="504.5" y="100" as="targetPoint" />
            <Array as="points">
              <mxPoint x="504.78999999999996" y="80" />
            </Array>
          </mxGeometry>
        </mxCell>
        <mxCell id="WkJREpXRsKlXx7rKNtdf-7" value="" style="edgeStyle=none;orthogonalLoop=1;jettySize=auto;html=1;rounded=0;exitX=0.5;exitY=1;exitDx=0;exitDy=0;" parent="Rbq2Ly_xB-UMOEI3UbAK-6" source="WkJREpXRsKlXx7rKNtdf-4" edge="1">
          <mxGeometry width="100" relative="1" as="geometry">
            <mxPoint x="250" y="60" as="sourcePoint" />
            <mxPoint x="249.5" y="100" as="targetPoint" />
            <Array as="points">
              <mxPoint x="249.78999999999996" y="80" />
            </Array>
          </mxGeometry>
        </mxCell>
        <mxCell id="XsoKBKTVtNR1YikcbCn8-1" value="" style="endArrow=classic;html=1;rounded=0;" parent="Rbq2Ly_xB-UMOEI3UbAK-6" edge="1">
          <mxGeometry width="50" height="50" relative="1" as="geometry">
            <mxPoint x="580" y="210" as="sourcePoint" />
            <mxPoint x="770" y="210" as="targetPoint" />
          </mxGeometry>
        </mxCell>
        <mxCell id="XsoKBKTVtNR1YikcbCn8-2" value="&lt;div style=&quot;font-size: 15px;&quot;&gt;Unfulfilled client&lt;/div&gt;" style="text;html=1;align=center;verticalAlign=middle;whiteSpace=wrap;rounded=0;" parent="Rbq2Ly_xB-UMOEI3UbAK-6" vertex="1">
          <mxGeometry x="610" y="220" width="160" height="30" as="geometry" />
        </mxCell>
      </root>
    </mxGraphModel>
  </diagram>
  <diagram id="tfugTFj6rysVV242ozHU" name="Диаграмма 2">
    <mxGraphModel dx="1500" dy="810" grid="1" gridSize="10" guides="1" tooltips="1" connect="1" arrows="1" fold="1" page="1" pageScale="1" pageWidth="827" pageHeight="1169" math="0" shadow="0">
      <root>
        <mxCell id="0" />
        <mxCell id="1" parent="0" />
        <mxCell id="hZjhl2pFzms0AcmQwn23-1" value="" style="rounded=0;whiteSpace=wrap;html=1;" parent="1" vertex="1">
          <mxGeometry x="300" y="720" width="1020" height="860" as="geometry" />
        </mxCell>
        <mxCell id="hZjhl2pFzms0AcmQwn23-2" value="&lt;div&gt;Client&lt;/div&gt;&lt;div&gt;I1&lt;/div&gt;" style="text;html=1;align=center;verticalAlign=middle;whiteSpace=wrap;rounded=0;" parent="1" vertex="1">
          <mxGeometry x="305.25" y="900" width="110" height="30" as="geometry" />
        </mxCell>
        <mxCell id="hZjhl2pFzms0AcmQwn23-3" value="" style="edgeStyle=none;orthogonalLoop=1;jettySize=auto;html=1;rounded=0;" parent="1" edge="1">
          <mxGeometry width="100" relative="1" as="geometry">
            <mxPoint x="326" y="930" as="sourcePoint" />
            <mxPoint x="426" y="930" as="targetPoint" />
            <Array as="points" />
          </mxGeometry>
        </mxCell>
        <mxCell id="ZzRJ9fnDZuZnXYNsFH5r-4" style="edgeStyle=orthogonalEdgeStyle;rounded=1;orthogonalLoop=1;jettySize=auto;html=1;exitX=1;exitY=0.75;exitDx=0;exitDy=0;entryX=0.75;entryY=0;entryDx=0;entryDy=0;curved=0;" parent="1" source="hZjhl2pFzms0AcmQwn23-4" target="hZjhl2pFzms0AcmQwn23-7" edge="1">
          <mxGeometry relative="1" as="geometry" />
        </mxCell>
        <mxCell id="ZzRJ9fnDZuZnXYNsFH5r-10" style="edgeStyle=orthogonalEdgeStyle;rounded=0;orthogonalLoop=1;jettySize=auto;html=1;exitX=1;exitY=0.25;exitDx=0;exitDy=0;entryX=0;entryY=0.5;entryDx=0;entryDy=0;" parent="1" source="hZjhl2pFzms0AcmQwn23-4" target="CNUOxmfVoUugLt2lpj2k-14" edge="1">
          <mxGeometry relative="1" as="geometry" />
        </mxCell>
        <mxCell id="ZzRJ9fnDZuZnXYNsFH5r-11" style="edgeStyle=orthogonalEdgeStyle;rounded=0;orthogonalLoop=1;jettySize=auto;html=1;exitX=1;exitY=0.5;exitDx=0;exitDy=0;entryX=0;entryY=0.5;entryDx=0;entryDy=0;" parent="1" source="hZjhl2pFzms0AcmQwn23-4" target="CNUOxmfVoUugLt2lpj2k-10" edge="1">
          <mxGeometry relative="1" as="geometry" />
        </mxCell>
        <mxCell id="hZjhl2pFzms0AcmQwn23-4" value="" style="rounded=0;whiteSpace=wrap;html=1;" parent="1" vertex="1">
          <mxGeometry x="660" y="1020" width="190" height="125" as="geometry" />
        </mxCell>
        <mxCell id="hZjhl2pFzms0AcmQwn23-5" value="&lt;span style=&quot;font-size: 17px;&quot;&gt;Sales&lt;/span&gt;&lt;div&gt;&lt;span style=&quot;font-size: 17px;&quot;&gt;&amp;nbsp;and production of products&lt;/span&gt;&lt;/div&gt;" style="text;html=1;align=center;verticalAlign=middle;whiteSpace=wrap;rounded=0;" parent="1" vertex="1">
          <mxGeometry x="705" y="1055" width="100" height="50" as="geometry" />
        </mxCell>
        <mxCell id="hZjhl2pFzms0AcmQwn23-7" value="" style="rounded=0;whiteSpace=wrap;html=1;" parent="1" vertex="1">
          <mxGeometry x="908.75" y="1240" width="157.5" height="110" as="geometry" />
        </mxCell>
        <mxCell id="hZjhl2pFzms0AcmQwn23-8" value="&lt;div&gt;&lt;span style=&quot;font-size: 17px;&quot;&gt;Finished Products&lt;/span&gt;&lt;/div&gt;&lt;div&gt;&lt;span style=&quot;font-size: 17px;&quot;&gt;(Menu Item)&lt;/span&gt;&lt;/div&gt;" style="text;html=1;align=center;verticalAlign=middle;whiteSpace=wrap;rounded=0;" parent="1" vertex="1">
          <mxGeometry x="850" y="1160" width="123" height="24" as="geometry" />
        </mxCell>
        <mxCell id="ZzRJ9fnDZuZnXYNsFH5r-12" style="edgeStyle=orthogonalEdgeStyle;rounded=0;orthogonalLoop=1;jettySize=auto;html=1;exitX=1;exitY=0.5;exitDx=0;exitDy=0;" parent="1" source="hZjhl2pFzms0AcmQwn23-9" target="CNUOxmfVoUugLt2lpj2k-9" edge="1">
          <mxGeometry relative="1" as="geometry" />
        </mxCell>
        <mxCell id="hZjhl2pFzms0AcmQwn23-9" value="&lt;span style=&quot;font-size: 17px;&quot;&gt;Sale of purchased goods&lt;/span&gt;" style="text;html=1;align=center;verticalAlign=middle;whiteSpace=wrap;rounded=0;" parent="1" vertex="1">
          <mxGeometry x="902" y="1260" width="165" height="70" as="geometry" />
        </mxCell>
        <mxCell id="hZjhl2pFzms0AcmQwn23-11" value="&lt;div&gt;&lt;span style=&quot;font-size: 18px;&quot;&gt;Order information&lt;/span&gt;&lt;/div&gt;&lt;div&gt;&lt;span style=&quot;font-size: 18px;&quot;&gt;(receipt)&lt;/span&gt;&lt;/div&gt;" style="text;html=1;align=center;verticalAlign=middle;whiteSpace=wrap;rounded=0;" parent="1" vertex="1">
          <mxGeometry x="600" y="950" width="100" height="30" as="geometry" />
        </mxCell>
        <mxCell id="TnLc7RuLrSyq6zG1nkFs-46" style="edgeStyle=orthogonalEdgeStyle;rounded=0;orthogonalLoop=1;jettySize=auto;html=1;exitX=0.5;exitY=0;exitDx=0;exitDy=0;entryX=0.5;entryY=1;entryDx=0;entryDy=0;" parent="1" source="XEzlZ3Zo5gmK4sfwDEYe-2" target="hZjhl2pFzms0AcmQwn23-4" edge="1">
          <mxGeometry relative="1" as="geometry" />
        </mxCell>
        <mxCell id="XEzlZ3Zo5gmK4sfwDEYe-2" value="&lt;div&gt;&lt;span style=&quot;font-size: 18px;&quot;&gt;Kitchen&lt;/span&gt;&lt;/div&gt;&lt;div&gt;&lt;span style=&quot;font-size: 18px;&quot;&gt;M2&lt;/span&gt;&lt;/div&gt;" style="text;strokeColor=none;align=center;fillColor=none;html=1;verticalAlign=middle;whiteSpace=wrap;rounded=0;" parent="1" vertex="1">
          <mxGeometry x="715" y="1360" width="80" height="50" as="geometry" />
        </mxCell>
        <mxCell id="TnLc7RuLrSyq6zG1nkFs-26" style="edgeStyle=orthogonalEdgeStyle;rounded=1;orthogonalLoop=1;jettySize=auto;html=1;exitX=0.5;exitY=1;exitDx=0;exitDy=0;entryX=0.5;entryY=0;entryDx=0;entryDy=0;curved=0;" parent="1" source="XEzlZ3Zo5gmK4sfwDEYe-3" target="hZjhl2pFzms0AcmQwn23-4" edge="1">
          <mxGeometry relative="1" as="geometry" />
        </mxCell>
        <mxCell id="XEzlZ3Zo5gmK4sfwDEYe-3" value="&lt;div&gt;&lt;span style=&quot;font-size: 18px;&quot;&gt;Technology of production of productsС2&lt;/span&gt;&lt;/div&gt;" style="text;strokeColor=none;align=center;fillColor=none;html=1;verticalAlign=middle;whiteSpace=wrap;rounded=0;" parent="1" vertex="1">
          <mxGeometry x="840" y="730" width="200" height="100" as="geometry" />
        </mxCell>
        <mxCell id="TnLc7RuLrSyq6zG1nkFs-44" style="edgeStyle=orthogonalEdgeStyle;rounded=0;orthogonalLoop=1;jettySize=auto;html=1;exitX=0.5;exitY=0;exitDx=0;exitDy=0;entryX=0.5;entryY=1;entryDx=0;entryDy=0;" parent="1" source="887e0xp4NjnoSNzh5Rft-4" target="3kqvE6F2s8sZ6iHMaNg9-6" edge="1">
          <mxGeometry relative="1" as="geometry" />
        </mxCell>
        <mxCell id="887e0xp4NjnoSNzh5Rft-4" value="&lt;div&gt;&lt;div&gt;&lt;span style=&quot;font-size: 18px;&quot;&gt;Service staff&lt;/span&gt;&lt;/div&gt;&lt;div&gt;&lt;span style=&quot;font-size: 18px;&quot;&gt;(Waiters)&lt;/span&gt;&lt;/div&gt;&lt;/div&gt;&lt;div&gt;&lt;div&gt;&lt;font size=&quot;3&quot;&gt;М1&lt;/font&gt;&lt;/div&gt;&lt;div&gt;&lt;br&gt;&lt;/div&gt;&lt;/div&gt;" style="text;html=1;align=center;verticalAlign=middle;whiteSpace=wrap;rounded=0;" parent="1" vertex="1">
          <mxGeometry x="419" y="1340" width="153" height="110" as="geometry" />
        </mxCell>
        <mxCell id="TnLc7RuLrSyq6zG1nkFs-27" style="edgeStyle=orthogonalEdgeStyle;rounded=1;orthogonalLoop=1;jettySize=auto;html=1;exitX=1;exitY=0.5;exitDx=0;exitDy=0;entryX=0.5;entryY=0;entryDx=0;entryDy=0;curved=0;" parent="1" edge="1">
          <mxGeometry relative="1" as="geometry">
            <mxPoint x="560" y="927" as="sourcePoint" />
            <mxPoint x="755" y="1017" as="targetPoint" />
          </mxGeometry>
        </mxCell>
        <mxCell id="ZzRJ9fnDZuZnXYNsFH5r-5" style="edgeStyle=orthogonalEdgeStyle;rounded=1;orthogonalLoop=1;jettySize=auto;html=1;exitX=0.75;exitY=1;exitDx=0;exitDy=0;entryX=0;entryY=0.75;entryDx=0;entryDy=0;curved=0;" parent="1" source="3kqvE6F2s8sZ6iHMaNg9-6" target="hZjhl2pFzms0AcmQwn23-9" edge="1">
          <mxGeometry relative="1" as="geometry" />
        </mxCell>
        <mxCell id="3kqvE6F2s8sZ6iHMaNg9-6" value="&lt;span style=&quot;font-size: 17px;&quot;&gt;Customer service&lt;/span&gt;" style="rounded=0;whiteSpace=wrap;html=1;" parent="1" vertex="1">
          <mxGeometry x="430" y="895" width="130" height="70" as="geometry" />
        </mxCell>
        <mxCell id="TnLc7RuLrSyq6zG1nkFs-43" style="edgeStyle=orthogonalEdgeStyle;rounded=0;orthogonalLoop=1;jettySize=auto;html=1;exitX=0.5;exitY=1;exitDx=0;exitDy=0;entryX=0.5;entryY=0;entryDx=0;entryDy=0;" parent="1" source="nR1l6QP1D7QH3WepqO3K-3" target="3kqvE6F2s8sZ6iHMaNg9-6" edge="1">
          <mxGeometry relative="1" as="geometry" />
        </mxCell>
        <mxCell id="nR1l6QP1D7QH3WepqO3K-3" value="&lt;div&gt;&lt;font style=&quot;&quot;&gt;&lt;span style=&quot;font-size: 18px;&quot;&gt;Regulations for the organization of services&lt;/span&gt;&lt;/font&gt;&lt;/div&gt;&lt;div&gt;&lt;font style=&quot;&quot;&gt;&lt;span style=&quot;font-size: 18px;&quot;&gt;С1&lt;/span&gt;&lt;/font&gt;&lt;/div&gt;" style="text;strokeColor=none;align=center;fillColor=none;html=1;verticalAlign=middle;whiteSpace=wrap;rounded=0;" parent="1" vertex="1">
          <mxGeometry x="415.25" y="740" width="158.5" height="90" as="geometry" />
        </mxCell>
        <mxCell id="F5B5kVTzgWQ0xazpf2cV-4" value="" style="rounded=0;whiteSpace=wrap;html=1;" parent="1" vertex="1">
          <mxGeometry x="270" y="1690" width="1080" height="520" as="geometry" />
        </mxCell>
        <mxCell id="F5B5kVTzgWQ0xazpf2cV-6" value="&lt;b&gt;Meet the client&lt;/b&gt;" style="rounded=0;whiteSpace=wrap;html=1;" parent="1" vertex="1">
          <mxGeometry x="410" y="1790" width="130" height="70" as="geometry" />
        </mxCell>
        <mxCell id="hLS1kRvJ73kO3Yw6kziM-1" value="" style="swimlane;startSize=0;" parent="1" vertex="1">
          <mxGeometry x="270" y="2170" width="200" height="40" as="geometry" />
        </mxCell>
        <mxCell id="hLS1kRvJ73kO3Yw6kziM-2" value="&lt;b style=&quot;font-size: 18px;&quot;&gt;Node: A2&lt;/b&gt;" style="text;html=1;align=center;verticalAlign=middle;whiteSpace=wrap;rounded=0;" parent="hLS1kRvJ73kO3Yw6kziM-1" vertex="1">
          <mxGeometry x="30" y="10" width="90" height="30" as="geometry" />
        </mxCell>
        <mxCell id="hLS1kRvJ73kO3Yw6kziM-3" value="&lt;span style=&quot;font-size: 18px;&quot;&gt;&lt;b&gt;Customer service&lt;/b&gt;&lt;/span&gt;" style="rounded=0;whiteSpace=wrap;html=1;" parent="1" vertex="1">
          <mxGeometry x="470" y="2170" width="530" height="40" as="geometry" />
        </mxCell>
        <mxCell id="hLS1kRvJ73kO3Yw6kziM-4" value="" style="rounded=0;whiteSpace=wrap;html=1;" parent="1" vertex="1">
          <mxGeometry x="950" y="2170" width="400" height="40" as="geometry" />
        </mxCell>
        <mxCell id="NJB4pGNaFBlMtIbDYHoR-1" value="Client" style="text;html=1;align=center;verticalAlign=middle;whiteSpace=wrap;rounded=0;" parent="1" vertex="1">
          <mxGeometry x="330" y="1800" width="60" height="30" as="geometry" />
        </mxCell>
        <mxCell id="NJB4pGNaFBlMtIbDYHoR-2" value="" style="endArrow=classic;html=1;rounded=0;exitX=0.039;exitY=0.269;exitDx=0;exitDy=0;exitPerimeter=0;" parent="1" edge="1">
          <mxGeometry width="50" height="50" relative="1" as="geometry">
            <mxPoint x="345.1700000000001" y="1830.0000000000005" as="sourcePoint" />
            <mxPoint x="405" y="1830.12" as="targetPoint" />
            <Array as="points">
              <mxPoint x="325" y="1830" />
            </Array>
          </mxGeometry>
        </mxCell>
        <mxCell id="NJB4pGNaFBlMtIbDYHoR-3" value="&lt;b&gt;Show to the table&lt;/b&gt;" style="rounded=0;whiteSpace=wrap;html=1;" parent="1" vertex="1">
          <mxGeometry x="590" y="1860" width="120" height="60" as="geometry" />
        </mxCell>
        <mxCell id="NJB4pGNaFBlMtIbDYHoR-4" value="&lt;b&gt;Accept order&lt;/b&gt;" style="rounded=0;whiteSpace=wrap;html=1;" parent="1" vertex="1">
          <mxGeometry x="860" y="1910" width="120" height="60" as="geometry" />
        </mxCell>
        <mxCell id="NJB4pGNaFBlMtIbDYHoR-7" value="Service staff" style="text;html=1;align=center;verticalAlign=middle;whiteSpace=wrap;rounded=0;" parent="1" vertex="1">
          <mxGeometry x="445" y="2070" width="60" height="30" as="geometry" />
        </mxCell>
        <mxCell id="NJB4pGNaFBlMtIbDYHoR-8" value="" style="endArrow=classic;html=1;rounded=0;exitX=0.228;exitY=0.673;exitDx=0;exitDy=0;exitPerimeter=0;" parent="1" edge="1">
          <mxGeometry width="50" height="50" relative="1" as="geometry">
            <mxPoint x="474.83000000000004" y="2000" as="sourcePoint" />
            <mxPoint x="474.99" y="1860.04" as="targetPoint" />
            <Array as="points">
              <mxPoint x="475" y="2070" />
              <mxPoint x="475" y="2040" />
            </Array>
          </mxGeometry>
        </mxCell>
        <mxCell id="NJB4pGNaFBlMtIbDYHoR-11" value="" style="curved=1;endArrow=classic;html=1;rounded=0;entryX=0.5;entryY=1;entryDx=0;entryDy=0;" parent="1" target="NJB4pGNaFBlMtIbDYHoR-3" edge="1">
          <mxGeometry width="50" height="50" relative="1" as="geometry">
            <mxPoint x="660" y="2020" as="sourcePoint" />
            <mxPoint x="710" y="1890" as="targetPoint" />
            <Array as="points">
              <mxPoint x="670" y="2020" />
              <mxPoint x="650" y="2020" />
              <mxPoint x="650" y="2010" />
              <mxPoint x="650" y="1980" />
              <mxPoint x="650" y="1950" />
            </Array>
          </mxGeometry>
        </mxCell>
        <mxCell id="TnLc7RuLrSyq6zG1nkFs-53" value="&lt;font style=&quot;font-size: 18px;&quot;&gt;Realized client&lt;/font&gt;" style="text;strokeColor=none;align=center;fillColor=none;html=1;verticalAlign=middle;whiteSpace=wrap;rounded=0;" parent="1" vertex="1">
          <mxGeometry x="1080" y="1250" width="170" height="40" as="geometry" />
        </mxCell>
        <mxCell id="TnLc7RuLrSyq6zG1nkFs-54" value="&lt;font style=&quot;font-size: 18px;&quot;&gt;Unfulfilled client&lt;/font&gt;" style="text;strokeColor=none;align=center;fillColor=none;html=1;verticalAlign=middle;whiteSpace=wrap;rounded=0;" parent="1" vertex="1">
          <mxGeometry x="1080" y="1340" width="170" height="40" as="geometry" />
        </mxCell>
        <mxCell id="NJB4pGNaFBlMtIbDYHoR-13" value="" style="curved=1;endArrow=classic;html=1;rounded=0;entryX=0.5;entryY=1;entryDx=0;entryDy=0;" parent="1" target="NJB4pGNaFBlMtIbDYHoR-4" edge="1">
          <mxGeometry width="50" height="50" relative="1" as="geometry">
            <mxPoint x="900" y="2020" as="sourcePoint" />
            <mxPoint x="950" y="1970" as="targetPoint" />
            <Array as="points">
              <mxPoint x="230" y="2020" />
              <mxPoint x="870" y="2020" />
              <mxPoint x="920" y="2020" />
            </Array>
          </mxGeometry>
        </mxCell>
        <mxCell id="CNUOxmfVoUugLt2lpj2k-1" value="&lt;font style=&quot;font-size: 14px;&quot;&gt;A realized guest&lt;/font&gt;" style="text;strokeColor=none;align=center;fillColor=none;html=1;verticalAlign=middle;whiteSpace=wrap;rounded=0;" parent="1" vertex="1">
          <mxGeometry x="950" y="1030" width="170" height="19" as="geometry" />
        </mxCell>
        <mxCell id="CNUOxmfVoUugLt2lpj2k-2" value="&lt;font style=&quot;font-size: 14px;&quot;&gt;Unfulfilled guest&lt;/font&gt;" style="text;strokeColor=none;align=center;fillColor=none;html=1;verticalAlign=middle;whiteSpace=wrap;rounded=0;" parent="1" vertex="1">
          <mxGeometry x="954" y="1070" width="170" height="40" as="geometry" />
        </mxCell>
        <mxCell id="NJB4pGNaFBlMtIbDYHoR-16" value="" style="endArrow=classic;html=1;rounded=0;entryX=0.723;entryY=0.231;entryDx=0;entryDy=0;entryPerimeter=0;" parent="1" edge="1">
          <mxGeometry width="50" height="50" relative="1" as="geometry">
            <mxPoint x="720" y="1810" as="sourcePoint" />
            <mxPoint x="1189.69" y="1810.12" as="targetPoint" />
            <Array as="points">
              <mxPoint x="540" y="1810" />
            </Array>
          </mxGeometry>
        </mxCell>
        <mxCell id="NJB4pGNaFBlMtIbDYHoR-17" value="Unfulfilled client (guest refusal)" style="text;html=1;align=center;verticalAlign=middle;whiteSpace=wrap;rounded=0;" parent="1" vertex="1">
          <mxGeometry x="1110" y="1770" width="60" height="30" as="geometry" />
        </mxCell>
        <mxCell id="CNUOxmfVoUugLt2lpj2k-9" value="&lt;font style=&quot;font-size: 18px;&quot;&gt;О1&lt;/font&gt;" style="text;strokeColor=none;align=center;fillColor=none;html=1;verticalAlign=middle;whiteSpace=wrap;rounded=0;" parent="1" vertex="1">
          <mxGeometry x="1250" y="1280" width="60" height="30" as="geometry" />
        </mxCell>
        <mxCell id="CNUOxmfVoUugLt2lpj2k-10" value="&lt;font style=&quot;font-size: 18px;&quot;&gt;О2&lt;/font&gt;" style="text;strokeColor=none;align=center;fillColor=none;html=1;verticalAlign=middle;whiteSpace=wrap;rounded=0;" parent="1" vertex="1">
          <mxGeometry x="1250" y="1067" width="60" height="30" as="geometry" />
        </mxCell>
        <mxCell id="NJB4pGNaFBlMtIbDYHoR-20" value="" style="rounded=0;whiteSpace=wrap;html=1;" parent="1" vertex="1">
          <mxGeometry x="1070" y="1943" width="120" height="60" as="geometry" />
        </mxCell>
        <mxCell id="NJB4pGNaFBlMtIbDYHoR-21" value="&lt;b&gt;Submit an order&lt;/b&gt;" style="text;html=1;align=center;verticalAlign=middle;whiteSpace=wrap;rounded=0;" parent="1" vertex="1">
          <mxGeometry x="1100" y="1965" width="60" height="30" as="geometry" />
        </mxCell>
        <mxCell id="NJB4pGNaFBlMtIbDYHoR-22" value="" style="endArrow=classic;html=1;rounded=0;exitX=0.039;exitY=0.269;exitDx=0;exitDy=0;exitPerimeter=0;" parent="1" edge="1">
          <mxGeometry width="50" height="50" relative="1" as="geometry">
            <mxPoint x="1255.17" y="1980.0000000000005" as="sourcePoint" />
            <mxPoint x="1315" y="1980.12" as="targetPoint" />
            <Array as="points">
              <mxPoint x="1235" y="1980" />
              <mxPoint x="1190" y="1980" />
            </Array>
          </mxGeometry>
        </mxCell>
        <mxCell id="NJB4pGNaFBlMtIbDYHoR-23" value="&lt;font style=&quot;font-size: 10px;&quot;&gt;Realized client&lt;/font&gt;" style="text;html=1;align=center;verticalAlign=middle;whiteSpace=wrap;rounded=0;" parent="1" vertex="1">
          <mxGeometry x="1230" y="1950" width="60" height="30" as="geometry" />
        </mxCell>
        <mxCell id="NJB4pGNaFBlMtIbDYHoR-25" value="" style="curved=1;endArrow=classic;html=1;rounded=0;entryX=0.547;entryY=1.026;entryDx=0;entryDy=0;entryPerimeter=0;" parent="1" target="NJB4pGNaFBlMtIbDYHoR-20" edge="1">
          <mxGeometry width="50" height="50" relative="1" as="geometry">
            <mxPoint x="900" y="2020.54" as="sourcePoint" />
            <mxPoint x="1137.68" y="1995.0000000000002" as="targetPoint" />
            <Array as="points">
              <mxPoint x="950" y="2020.54" />
              <mxPoint x="1040" y="2019.7" />
              <mxPoint x="1136" y="2020" />
            </Array>
          </mxGeometry>
        </mxCell>
        <mxCell id="CNUOxmfVoUugLt2lpj2k-14" value="&lt;font style=&quot;font-size: 18px;&quot;&gt;О1&lt;/font&gt;" style="text;strokeColor=none;align=center;fillColor=none;html=1;verticalAlign=middle;whiteSpace=wrap;rounded=0;" parent="1" vertex="1">
          <mxGeometry x="1250" y="1037" width="60" height="30" as="geometry" />
        </mxCell>
        <mxCell id="ZzRJ9fnDZuZnXYNsFH5r-9" value="&lt;font style=&quot;font-size: 18px;&quot;&gt;О2&lt;/font&gt;" style="text;strokeColor=none;align=center;fillColor=none;html=1;verticalAlign=middle;whiteSpace=wrap;rounded=0;" parent="1" vertex="1">
          <mxGeometry x="1250" y="1310" width="60" height="30" as="geometry" />
        </mxCell>
        <mxCell id="NJB4pGNaFBlMtIbDYHoR-27" value="" style="curved=1;endArrow=classic;html=1;rounded=0;entryX=0.5;entryY=0;entryDx=0;entryDy=0;" parent="1" target="NJB4pGNaFBlMtIbDYHoR-4" edge="1">
          <mxGeometry width="50" height="50" relative="1" as="geometry">
            <mxPoint x="710" y="1875" as="sourcePoint" />
            <mxPoint x="820" y="1905" as="targetPoint" />
            <Array as="points">
              <mxPoint x="760" y="1875" />
              <mxPoint x="920" y="1875" />
            </Array>
          </mxGeometry>
        </mxCell>
        <mxCell id="NJB4pGNaFBlMtIbDYHoR-26" value="" style="curved=1;endArrow=classic;html=1;rounded=0;entryX=0.5;entryY=0;entryDx=0;entryDy=0;" parent="1" target="NJB4pGNaFBlMtIbDYHoR-3" edge="1">
          <mxGeometry width="50" height="50" relative="1" as="geometry">
            <mxPoint x="540" y="1830" as="sourcePoint" />
            <mxPoint x="590" y="1780" as="targetPoint" />
            <Array as="points">
              <mxPoint x="590" y="1830" />
              <mxPoint x="650" y="1830" />
            </Array>
          </mxGeometry>
        </mxCell>
        <mxCell id="NJB4pGNaFBlMtIbDYHoR-28" value="" style="curved=1;endArrow=classic;html=1;rounded=0;entryX=0.5;entryY=0;entryDx=0;entryDy=0;" parent="1" target="NJB4pGNaFBlMtIbDYHoR-20" edge="1">
          <mxGeometry width="50" height="50" relative="1" as="geometry">
            <mxPoint x="980" y="1920" as="sourcePoint" />
            <mxPoint x="1190" y="1955" as="targetPoint" />
            <Array as="points">
              <mxPoint x="1030" y="1920" />
              <mxPoint x="1130" y="1920" />
            </Array>
          </mxGeometry>
        </mxCell>
        <mxCell id="ZzRJ9fnDZuZnXYNsFH5r-16" style="edgeStyle=orthogonalEdgeStyle;rounded=0;orthogonalLoop=1;jettySize=auto;html=1;exitX=0.991;exitY=0.923;exitDx=0;exitDy=0;entryX=0;entryY=0.5;entryDx=0;entryDy=0;exitPerimeter=0;" parent="1" source="hZjhl2pFzms0AcmQwn23-9" target="ZzRJ9fnDZuZnXYNsFH5r-9" edge="1">
          <mxGeometry relative="1" as="geometry" />
        </mxCell>
        <mxCell id="NJB4pGNaFBlMtIbDYHoR-29" value="I1" style="text;html=1;align=center;verticalAlign=middle;whiteSpace=wrap;rounded=0;" parent="1" vertex="1">
          <mxGeometry x="300" y="1830" width="60" height="30" as="geometry" />
        </mxCell>
        <mxCell id="NJB4pGNaFBlMtIbDYHoR-30" value="1" style="text;html=1;align=center;verticalAlign=middle;whiteSpace=wrap;rounded=0;" parent="1" vertex="1">
          <mxGeometry x="480" y="1830" width="60" height="30" as="geometry" />
        </mxCell>
        <mxCell id="NJB4pGNaFBlMtIbDYHoR-31" value="2" style="text;html=1;align=center;verticalAlign=middle;whiteSpace=wrap;rounded=0;" parent="1" vertex="1">
          <mxGeometry x="670" y="1890" width="60" height="30" as="geometry" />
        </mxCell>
        <mxCell id="NJB4pGNaFBlMtIbDYHoR-32" value="3" style="text;html=1;align=center;verticalAlign=middle;whiteSpace=wrap;rounded=0;" parent="1" vertex="1">
          <mxGeometry x="930" y="1940" width="60" height="30" as="geometry" />
        </mxCell>
        <mxCell id="NJB4pGNaFBlMtIbDYHoR-33" value="4" style="text;html=1;align=center;verticalAlign=middle;whiteSpace=wrap;rounded=0;" parent="1" vertex="1">
          <mxGeometry x="1140" y="1980" width="60" height="30" as="geometry" />
        </mxCell>
        <mxCell id="NJB4pGNaFBlMtIbDYHoR-34" value="M1" style="text;html=1;align=center;verticalAlign=middle;whiteSpace=wrap;rounded=0;" parent="1" vertex="1">
          <mxGeometry x="445" y="2100" width="60" height="30" as="geometry" />
        </mxCell>
        <mxCell id="NJB4pGNaFBlMtIbDYHoR-35" value="O1" style="text;html=1;align=center;verticalAlign=middle;whiteSpace=wrap;rounded=0;" parent="1" vertex="1">
          <mxGeometry x="1190" y="1790" width="60" height="30" as="geometry" />
        </mxCell>
        <mxCell id="NJB4pGNaFBlMtIbDYHoR-36" value="O2" style="text;html=1;align=center;verticalAlign=middle;whiteSpace=wrap;rounded=0;" parent="1" vertex="1">
          <mxGeometry x="1300" y="1965" width="60" height="30" as="geometry" />
        </mxCell>
        <mxCell id="NJB4pGNaFBlMtIbDYHoR-37" value="Met client" style="text;html=1;align=center;verticalAlign=middle;whiteSpace=wrap;rounded=0;" parent="1" vertex="1">
          <mxGeometry x="550" y="1830" width="60" height="30" as="geometry" />
        </mxCell>
        <mxCell id="NJB4pGNaFBlMtIbDYHoR-38" value="Seated client" style="text;html=1;align=center;verticalAlign=middle;whiteSpace=wrap;rounded=0;" parent="1" vertex="1">
          <mxGeometry x="745" y="1840" width="60" height="30" as="geometry" />
        </mxCell>
        <mxCell id="NJB4pGNaFBlMtIbDYHoR-39" value="Waiting customer" style="text;html=1;align=center;verticalAlign=middle;whiteSpace=wrap;rounded=0;" parent="1" vertex="1">
          <mxGeometry x="1009" y="1890" width="60" height="30" as="geometry" />
        </mxCell>
        <mxCell id="eCmqlMKLz4MihsAe14T5-1" value="" style="swimlane;startSize=0;" parent="1" vertex="1">
          <mxGeometry x="304" y="1540" width="200" height="40" as="geometry" />
        </mxCell>
        <mxCell id="eCmqlMKLz4MihsAe14T5-2" value="&lt;span style=&quot;font-size: 18px;&quot;&gt;&lt;b&gt;Node: A1&lt;/b&gt;&lt;/span&gt;" style="text;html=1;align=center;verticalAlign=middle;whiteSpace=wrap;rounded=0;" parent="eCmqlMKLz4MihsAe14T5-1" vertex="1">
          <mxGeometry x="45" y="5" width="90" height="30" as="geometry" />
        </mxCell>
        <mxCell id="eCmqlMKLz4MihsAe14T5-3" value="&lt;span style=&quot;font-size: 18px;&quot;&gt;Dispensing culinary products to the client&lt;/span&gt;" style="rounded=0;whiteSpace=wrap;html=1;" parent="1" vertex="1">
          <mxGeometry x="504" y="1540" width="576" height="40" as="geometry" />
        </mxCell>
        <mxCell id="eCmqlMKLz4MihsAe14T5-4" value="" style="rounded=0;whiteSpace=wrap;html=1;" parent="1" vertex="1">
          <mxGeometry x="1080" y="1540" width="240" height="40" as="geometry" />
        </mxCell>
      </root>
    </mxGraphModel>
  </diagram>
</mxfile>
